<svg height="48pt" viewBox="0 0 16.933334 16.933333" width="48pt" xmlns="http://www.w3.org/2000/svg"><g stroke-width=".812319"><g transform="matrix(1.2310442 0 0 1.2310442 27.744551 -322.236915)"><g><path d="m-17.923828 272.3418a.26460996.26460996 0 0 0 -.21875.13476s-.142163.25284-.285156.54688c-.0715.14702-.144609.30352-.201172.45117-.05656.14765-.103516.27118-.103516.42773 0 .44982.370487.82032.820313.82032.449825 0 .820312-.3705.820312-.82032 0-.15655-.04891-.28008-.105469-.42773-.05656-.14765-.127722-.30415-.199218-.45117-.142993-.29404-.285157-.54688-.285157-.54688a.26460996.26460996 0 0 0 -.242187-.13476z" fill="#ffb74d"/><path d="m-17.923787 272.34171a.26460995.26460995 0 0 0 -.219109.13488s-.02462.0454-.03411.0625c.0399.0721.135611.24662.251147.4842.0715.14702.142911.30349.199471.45114s.10542.27133.10542.42788c0 .35689-.235017.66044-.556038.77205.08359.0291.171649.0481.264583.0481.449825 0 .820622-.37029.820622-.82011 0-.15655-.04886-.28023-.10542-.42788s-.127975-.30412-.199471-.45114c-.142993-.29404-.285254-.54673-.285254-.54673a.26460995.26460995 0 0 0 -.241845-.13488z" fill="#ec8235"/></g><g><path d="m-11.291016 262.55078a.26460996.26460996 0 0 0 -.138672.0352l-1.455078.84179a.26460996.26460996 0 0 0 -.132812.22852v1.52734l-1.322266.76368a.26460996.26460996 0 0 0 -.132812.22851v1.68164a.26460996.26460996 0 0 0 .132812.22852l1.322266.76367v3.7168c-.000003.54334.444948.98828.988281.98828h.0078c.543332 0 .988281-.44494.988281-.98828v-1.63282c.145198.084.280269.18946.458984.18946h.0078c.543337 0 .988281-.44495.988281-.98828-.0000081-2.1596.0000269-4.31892 0-6.47852a.26460996.26460996 0 0 0 -.1328125-.22852l-1.4550785-.84179a.26460996.26460996 0 0 0 -.125-.0352z" fill="#ffb74d"/><path d="m-10.904297 264.55469a.26460996.26460996 0 0 0 -.261719.26953v1.05664a.2646485.2646485 0 1 0 .529297 0v-1.05664a.26460996.26460996 0 0 0 -.267578-.26953z" fill="#ffd8a0"/><path d="m-10.904297 266.67188a.26460996.26460996 0 0 0 -.261719.26757v.26563a.2646485.2646485 0 1 0 .529297 0v-.26563a.26460996.26460996 0 0 0 -.267578-.26757z" fill="#ffd8a0"/><g fill="#ec8235"><path d="m-11.290679 262.55088c-.04869-.001-.09679.0109-.139009.0351l-.515214.29817c.03872-.0196.08167-.0293.125057-.0284.04448.00088.08803.013.126607.0351l1.455208.84181c.0812.0476.130983.1348.130742.22893.0023 2.0569.0021 4.11473.0021 6.17326 0 .45291-.310528.80213-.727605.91949.08489.0239.172403.0727.264584.0727.545095 0 .9921872-.4471.9921872-.99219.014176-2.16534-.00206-4.32787-.00206-6.47661 0-.10939-.037978-.17691-.1307414-.23047l-1.4552078-.84181c-.03858-.0222-.08212-.0343-.126608-.0351z"/><path d="m-12.48257 269.81976s-.000341 2.2172-.000341 2.74281c0 .45291.310527.834.727604.95136-.08489.0239-.175347.0408-.264584.0408-.386125 0-.992187-.23663-.992187-.99219-.0032-.49296-.0055-2.1702-.0055-2.1702z"/><path d="m-13.019748 265.43425s.0021.37273.0021-1.77601c0-.10939.03798-.17691.130741-.23047l1.455208-.84181c.03858-.0222.08212-.0343.126608-.0351l.00004.00002c.04869-.001.09679.0109.139009.0351l.515214.29817c-.03872-.0196-.08167-.0293-.125057-.0284-.04448.00088-.08803.013-.126607.0351l-1.455208.84181c-.0812.0476-.130983.1348-.130742.22893-.0023 2.0569-.0021 1.47266-.0021 1.47266z"/></g></g><g><path d="m-14.201172 267.5918a.26460996.26460996 0 0 0 -.138672.0352l-1.455078.8418a.26460996.26460996 0 0 0 -.132812.22852v1.67968a.26460996.26460996 0 0 0 .132812.23047l1.419922.81836a.26460996.26460996 0 0 0 .08203.043.26460996.26460996 0 0 0 .02149.008.26460996.26460996 0 0 0 .0039 0 .26460996.26460996 0 0 0 .02148.006.26460996.26460996 0 0 0 .03125.002.26460996.26460996 0 0 0 .04687-.004.26460996.26460996 0 0 0 .02734-.006.26460996.26460996 0 0 0 .0039 0 .26460996.26460996 0 0 0 .0918-.0449.26460996.26460996 0 0 0 .002-.002l1.421875-.82031a.26460996.26460996 0 0 0 .132813-.23047v-1.67968a.26460996.26460996 0 0 0 -.132813-.22852l-1.455078-.8418a.26460996.26460996 0 0 0 -.125-.0352z" fill="#ffb74d"/><path d="m-14.208155 268.87042.550371.33336" fill="none" stroke="#ffd8a0" stroke-linecap="round" stroke-linejoin="round" stroke-width=".429852"/><path d="m-14.340803 267.62762-1.455208.84181c-.09276.0536-.130741.12108-.130741.23047v1.67742c0 .0895.03229.17368.130741.23048l.939994.54363.515214.29818c.100844.0582.211736.0311.265619 0l.515214-.29818.939994-.54363c.09845-.0568.130741-.14095.130741-.23048v-1.67742c0-.10939-.03798-.17691-.130741-.23047l-1.455208-.84181c-.09785-.0565-.204347-.0354-.265619 0zm.132809.53433 1.05885.61237c.0812.0476.130982.13531.130741.22944v1.07074c.000242.0941-.04954.18082-.130741.22841l-1.05885.61288-1.058851-.61288c-.0812-.0476-.130983-.13431-.130741-.22841v-1.07074c-.000241-.0941.04954-.18184.130741-.22944z" fill="#ec8235"/></g><g><path d="m-17.138672 267.59245a.26460996.26460996 0 0 0 -.111328.0352l-1.457031.83984a.26460996.26460996 0 0 0 -.13086.23047v1.72461c0 .54509.447093.99219.992188.99219.180527 0 .316543-.10797.462891-.19336v.12695c0 .54509.447092.99219.992187.99219s.992187-.4471.992187-.99219v-2.65039a.26460996.26460996 0 0 0 -.132812-.23047l-1.455078-.83984a.26460996.26460996 0 0 0 -.152344-.0352z" fill="#ffb74d"/><g fill="#ec8235"><path d="m-17.105416 267.59662c-.04869-.001-.09679.0109-.139009.0351l-.515214.29818c.03872-.0196.08167-.0293.125057-.0284.04448.00088.08803.013.126607.0351l1.455208.84181c.06807.0399.112108.10817.125057.18449v2.38543c0 .45291-.310527.83401-.727604.95137.08489.0239.172403.0408.264583.0408.545095 0 .992188-.4471.992188-.99219.0021-.88588.0057-1.75168.0057-2.64428 0-.10939-.03798-.17692-.130741-.23048l-1.455209-.84181c-.03858-.0222-.08212-.0343-.126607-.0351z"/><path d="m-18.308974 270.4228v-1.45986c0-.0765.05118-.13854.130742-.18448l1.455208-.84181c.03858-.0221.08213-.0343.126608-.0351.04339-.0009.08634.009.125056.0284l-.515214-.29817c-.04222-.0242-.09032-.0361-.139009-.0351h.000014c-.04449.00079-.08803.0129-.126608.0351l-1.455208.84181c-.09083.0525-.12867.11885-.130225.22427-.000979.0889-.000529.18458-.000529.2651v1.45986c0 .51606.402195.93925.907438.9834.02842.002.05572.009.08475.009.04056 0 .07869-.007.115238-.0165.126599-.0326.234344-.11106.347782-.17725-.67304 0-.917075-.31258-.926043-.7984z"/></g></g><g><path d="m-20.048828 267.59245a.26460996.26460996 0 0 0 -.113281.0352l-1.455079.83984a.26460996.26460996 0 0 0 -.130859.23047v1.67969a.26460996.26460996 0 0 0 .130859.22851l1.417969.81836a.26460996.26460996 0 0 0 .111328.0527.26460996.26460996 0 0 0 .02148.004.26460996.26460996 0 0 0 .0039 0 .26460996.26460996 0 0 0 .02148.002.26460996.26460996 0 0 0 .0059 0 .26460996.26460996 0 0 0 .04687-.002.26460996.26460996 0 0 0 .130859-.0566l1.416016-.81836a.26460996.26460996 0 0 0 .132812-.22851v-1.67969a.26460996.26460996 0 0 0 -.132812-.23047l-1.455078-.83984a.26460996.26460996 0 0 0 -.152344-.0352z" fill="#ffb74d"/><path d="m-20.042969 268.60417a.26460996.26460996 0 0 0 -.123047.49219l.550782.33398a.26461554.26461554 0 1 0 .273437-.45312l-.550781-.33399a.26460996.26460996 0 0 0 -.150391-.0391z" fill="#ffd8a0"/><path d="m-18.309555 270.37632c0 .10939-.03798.17691-.130741.23047l-1.455208.84181c-.09785.0565-.204347.0354-.265619 0-.04504-.0201-.131846-.0762-.131846-.0762 0-.19438-.01929-.29602.13086-.3827l.133795-.0754 1.05885-.61236c.0812-.0476.130982-.13532.130741-.22945 0-.35645 0-.7129 0-1.06935.000241-.0941-.04954-.18184-.130741-.22944l-1.05885-.61237-.133795-.0754c-.15015-.0867-.13086-.18833-.13086-.38271 0 0 .08681-.0561.131846-.0762.06127-.0354.167769-.0565.265619 0l1.455208.84181c.09276.0536.130741.12108.130741.23047z" fill="#ec8235"/></g><g><path d="m-15.683594 265.07227a.26460996.26460996 0 0 0 -.111328.0351l-1.455078.8399a.26460996.26460996 0 0 0 -.132812.22851v1.68164a.26460996.26460996 0 0 0 .132812.22852l1.40625.81054.0078.006a.26460996.26460996 0 0 0 .08789.0469.26460996.26460996 0 0 0 .04687.0117.26460996.26460996 0 0 0 .0039 0 .26460996.26460996 0 0 0 .02149.002.26460996.26460996 0 0 0 .0059 0 .26460996.26460996 0 0 0 .02539 0 .26460996.26460996 0 0 0 .152343-.0606l1.416016-.8164a.26460996.26460996 0 0 0 .132813-.22852v-1.68164a.26460996.26460996 0 0 0 -.132813-.22851l-1.455078-.83985a.26460996.26460996 0 0 0 -.152344-.0351z" fill="#ffb74d"/><path d="m-15.677734 266.08398a.26460996.26460996 0 0 0 -.123047.49219l.550781.33399a.26462008.26462008 0 1 0 .273438-.45313l-.548829-.33398a.26460996.26460996 0 0 0 -.152343-.0391z" fill="#ffd8a0"/><path d="m-15.795885 265.10691-1.455208.84181c-.09276.0536-.130741.12108-.130741.23047v1.67742c0 .0895.03229.17368.130741.23048l.939994.54363.515214.29818c.100844.0582.211736.0311.265619 0l.515214-.29818.939994-.54363c.09845-.0568.130741-.14095.130741-.23048v-1.67742c0-.10939-.03798-.17691-.130741-.23047l-1.455208-.84181c-.09785-.0565-.204347-.0354-.265619 0zm.132809.53433 1.05885.61237c.0812.0476.130982.13531.130741.22944v1.07074c.000242.0941-.04954.18082-.130741.22841l-1.05885.61288-1.058851-.61288c-.0812-.0476-.130983-.13431-.130741-.22841v-1.07074c-.000241-.0941.04954-.18184.130741-.22944z" fill="#ec8235"/></g><g><path d="m-18.59375 265.07227a.26460996.26460996 0 0 0 -.113281.0351l-1.455078.83985a.26460996.26460996 0 0 0 -.13086.22851v1.68164a.26460996.26460996 0 0 0 .13086.22852l1.423828.82226a.26460996.26460996 0 0 0 .0059.004.26460996.26460996 0 0 0 .121094.0488.26460996.26460996 0 0 0 .0039 0 .26460996.26460996 0 0 0 .02148.002.26460996.26460996 0 0 0 .0059 0 .26460996.26460996 0 0 0 .02539 0 .26460996.26460996 0 0 0 .152344-.0586l1.416016-.81836a.26460996.26460996 0 0 0 .132812-.22852v-1.68164a.26460996.26460996 0 0 0 -.132812-.22851l-1.455078-.83985a.26460996.26460996 0 0 0 -.152344-.0351z" fill="#ffb74d"/><path d="m-18.706017 265.10656-1.455208.84181c-.09276.0536-.130741.12108-.130741.23047v1.67742c0 .0895.03229.17368.130741.23048l.939994.54363.515214.29818c.100844.0582.211736.0311.265619 0l.515214-.29818.939994-.54363c.09845-.0568.130741-.14095.130741-.23048v-1.67742c0-.10939-.03798-.17691-.130741-.23047l-1.455208-.84181c-.09785-.0565-.204347-.0354-.265619 0zm.132809.53433 1.05885.61237c.0812.0476.130982.13531.130741.22944v1.07074c.000242.0941-.04954.18082-.130741.22841l-1.05885.61288-1.058851-.61288c-.0812-.0476-.130983-.13431-.130741-.22841v-1.07074c-.000241-.0941.04954-.18184.130741-.22944z" fill="#ec8235"/></g></g><g transform="matrix(1.2310442 0 0 1.2310442 21.23027503132 -315.72264026236)"><path d="m-8.9095053 257.25911a.26460996.26460996 0 0 0 -.138672.0352l-1.4550777.84179a.26460996.26460996 0 0 0 -.132812.22852v1.67969a.26460996.26460996 0 0 0 .132812.23047l1.4199217.81836a.26460996.26460996 0 0 0 .08203.043.26460996.26460996 0 0 0 .02149.008.26460996.26460996 0 0 0 .0039 0 .26460996.26460996 0 0 0 .02148.006.26460996.26460996 0 0 0 .03125.002.26460996.26460996 0 0 0 .04687-.004.26460996.26460996 0 0 0 .02734-.006.26460996.26460996 0 0 0 .0039 0 .26460996.26460996 0 0 0 .0918-.0449.26460996.26460996 0 0 0 .002-.002l1.421875-.82031a.26460996.26460996 0 0 0 .132813-.23047v-1.67969a.26460996.26460996 0 0 0 -.132813-.22852l-1.455078-.84179a.26460996.26460996 0 0 0 -.125-.0352z" fill="#ffb74d"/><path d="m-9.0491363 257.29492-1.4552077.84181c-.09276.0536-.130741.12108-.130741.23047v1.67742c0 .0895.03229.17368.130741.23048l.9399937.54363.515214.29818c.100844.0582.211736.0311.265619 0l.515214-.29818.939994-.54363c.09845-.0568.130741-.14095.130741-.23048v-1.67742c0-.10939-.03798-.17691-.130741-.23047l-1.455208-.84181c-.09785-.0565-.204347-.0354-.265619 0zm.132809.53433 1.05885.61237c.0812.0476.130982.13531.130741.22944v1.07074c.000242.0941-.04954.18082-.130741.22841l-1.05885.61288-1.058851-.61288c-.0812-.0476-.1309827-.13431-.1307407-.22841v-1.07074c-.000241-.0941.04954-.18184.1307407-.22944z" fill="#ec8235"/></g><g transform="matrix(1.2310442 0 0 1.2310442 27.744551 -315.72264026236)"><path d="m-17.113281 257.25911a.26460996.26460996 0 0 0 -.136719.0352l-1.457031.84179a.26460996.26460996 0 0 0 -.13086.22852v1.67969a.26460996.26460996 0 0 0 .13086.23047l1.421875.81836a.26460996.26460996 0 0 0 .128906.0566.26460996.26460996 0 0 0 .03125.002.26460996.26460996 0 0 0 .04687-.004.26460996.26460996 0 0 0 .123047-.0508.26460996.26460996 0 0 0 .002-.002l1.421875-.82031a.26460996.26460996 0 0 0 .132812-.23047v-1.67969a.26460996.26460996 0 0 0 -.132812-.22852l-1.455078-.84179a.26460996.26460996 0 0 0 -.126953-.0352z" fill="#ffb74d"/><path d="m-17.252176 257.2939-1.455208.84181c-.09276.0536-.130741.12108-.130741.23047v1.67742c0 .0895.03229.17368.130741.23048l.939994.54363.515214.29818c.100844.0582.211736.0311.265619 0l.515214-.29818.939994-.54363c.09845-.0568.130741-.14095.130741-.23048v-1.67742c0-.10939-.03798-.17691-.130741-.23047l-1.455208-.84181c-.09785-.0565-.204347-.0354-.265619 0zm.132809.53433 1.05885.61237c.0812.0476.130982.13531.130741.22944v1.07074c.000242.0941-.04954.18082-.130741.22841l-1.05885.61288-1.058851-.61288c-.0812-.0476-.130983-.13431-.130741-.22841v-1.07074c-.000241-.0941.04954-.18184.130741-.22944z" fill="#ec8235"/></g><g transform="matrix(1.2310442 0 0 1.2310442 27.744551 -322.236915)"><path d="m-20.022786 262.55077a.26460996.26460996 0 0 0 -.138672.0352l-1.455078.84179a.26460996.26460996 0 0 0 -.132813.22852v1.67969a.26460996.26460996 0 0 0 .132813.23047l1.421875.82031a.26460996.26460996 0 0 0 .132812.0547.26460996.26460996 0 0 0 .02539.002.26460996.26460996 0 0 0 .04883-.004.26460996.26460996 0 0 0 .0039 0 .26460996.26460996 0 0 0 .04687-.0137.26460996.26460996 0 0 0 .07227-.0371.26460996.26460996 0 0 0 .002-.002l1.421875-.82031a.26460996.26460996 0 0 0 .13086-.23047v-1.67969a.26460996.26460996 0 0 0 -.13086-.22852l-1.455078-.84179a.26460996.26460996 0 0 0 -.126953-.0352z" fill="#ffb74d"/><path d="m-20.035156 263.55663a.26460996.26460996 0 0 0 -.123047.49219l.550781.33398a.26512164.26512164 0 1 0 .275391-.45312l-.550781-.33203a.26460996.26460996 0 0 0 -.152344-.041z" fill="#ffd8a0"/><path d="m-18.309845 265.33558c0 .10939-.03798.17691-.130741.23047l-1.455208.84181c-.09785.0565-.204347.0354-.265619 0-.04504-.0201-.131846-.0762-.131846-.0762 0-.19438-.01929-.29602.13086-.3827l.133795-.0754 1.05885-.61236c.0812-.0476.130982-.13532.130741-.22945 0-.35645 0-.7129 0-1.06935.000241-.0941-.04954-.18184-.130741-.22944l-1.05885-.61237-.133795-.0754c-.15015-.0867-.13086-.18833-.13086-.38271 0 0 .08681-.0561.131846-.0762.06127-.0354.167769-.0565.265619 0l1.455208.84181c.09276.0536.130741.12108.130741.23047z" fill="#ec8235"/></g></g></svg>